# File created by Blade
# Date/Time:  Mon Nov 18 17:26:10 2013
# Frame Rate: 100.000 fps
#------------------------------------------------------
:FULLY-SPECIFIED
:DEGREES
291
root -39.641991 -2.883670 38.171675 9.145150 -0.754340 11.611399
Spine 22.083853 -0.619560 0.421335
Spine1 7.925558 -0.026841 1.484254
Spine2 -22.517035 -1.607341 -0.977475
NeckDummy -0.096678 0.327000 0.963065 13.434146 -0.113039 -0.819577
Neck 1.710430 -15.267319 40.352843
Head -0.511149 -0.107840 0.252857 -4.492712 -5.947181 -2.382950
LeftShoulderDummy -0.150600 0.332632 0.978908 13.427085 -0.313065 -0.552476
LeftShoulder 7.227435 -7.610423 16.055472
LeftArm 13.348003 42.880179 17.660481
LeftForeArm 41.898148
LeftForeArmRoll 23.824309
LeftHand -34.580846 -25.321705 15.403177
LeftHandThumb1 13.890489 5.557267
LeftHandIndex1 0.818971 40.806987
LeftHandPinky1 2.390671 60.435786
RightShoulderDummy -0.091593 0.359466 0.941795 13.397233 0.112581 0.869789
RightShoulder 6.105630 4.471162 7.076992
RightArm -2.570743 60.166629 36.988294
RightForeArm 102.062438
RightForeArmRoll 22.019160
RightHand -45.722777 -23.759492 9.687806
RightHandThumb1 11.400888 5.641102
RightHandIndex1 5.931064 34.481053
RightHandPinky1 10.263247 61.311133
LeftUpLeg -8.700411 22.935243 -39.973533
LeftLeg 40.248413
LeftFoot 0.002041 -0.674680 -1.202038 -25.987793 23.899845 1.082798
LeftToeBase 0.430597
RightUpLeg -0.339741 18.120360 -37.753189
RightLeg 53.043102
RightFoot -0.567635 0.776383 0.894287 -23.075131 4.992254 -19.691227
RightToeBase -1.150338
292
root -39.566990 -2.876375 38.151722 9.111134 -0.753942 11.438675
Spine 22.062490 -0.609119 0.433357
Spine1 7.918118 -0.026327 1.510369
Spine2 -22.510433 -1.596569 -0.967643
NeckDummy -0.096361 0.328882 0.963717 13.421974 -0.122319 -0.808759
Neck 1.702055 -15.238543 40.360539
Head -0.513099 -0.109888 0.250746 -4.458595 -5.958363 -2.395462
LeftShoulderDummy -0.149747 0.334314 0.979643 13.415399 -0.319504 -0.551604
LeftShoulder 7.257975 -7.606919 16.082357
LeftArm 13.302171 42.909683 17.606520
LeftForeArm 41.878837
LeftForeArmRoll 23.385168
LeftHand -34.168189 -25.197879 15.386970
LeftHandThumb1 13.761224 5.712696
LeftHandIndex1 0.466205 40.717573
LeftHandPinky1 1.989585 60.558729
RightShoulderDummy -0.091336 0.361198 0.942192 13.385191 0.122031 0.861122
RightShoulder 6.156473 4.391068 7.095905
RightArm -2.540622 60.259272 37.075882
RightForeArm 102.099125
RightForeArmRoll 21.871749
RightHand -45.742780 -23.682345 9.768891
RightHandThumb1 11.523689 5.644513
RightHandIndex1 5.863790 34.531640
RightHandPinky1 10.133799 61.177956
LeftUpLeg -8.442923 22.930664 -39.966602
LeftLeg 40.437998
LeftFoot -0.002137 -0.675015 -1.210215 -25.821318 23.854236 0.918602
LeftToeBase 0.417424
RightUpLeg -0.495083 18.167495 -37.695638
RightLeg 52.831175
RightFoot -0.557528 0.771294 0.894108 -23.212782 5.059620 -19.528520
RightToeBase -1.125107
293
root -39.488923 -2.868034 38.129366 9.102515 -0.763978 11.267639
Spine 22.031340 -0.591367 0.450887
Spine1 7.903388 -0.023630 1.552922
Spine2 -22.496854 -1.578193 -0.950342
NeckDummy -0.095060 0.332697 0.963302 13.416730 -0.129275 -0.812546
Neck 1.673978 -15.226267 40.311068
Head -0.512863 -0.113120 0.251345 -4.448470 -5.958589 -2.387287
LeftShoulderDummy -0.148232 0.338262 0.979271 13.409143 -0.326370 -0.556064
LeftShoulder 7.234873 -7.580465 16.098160
LeftArm 13.252188 43.002830 17.566193
LeftForeArm 41.825112
LeftForeArmRoll 23.369201
LeftHand -34.134773 -25.080589 15.342468
LeftHandThumb1 13.696384 5.777127
LeftHandIndex1 0.413490 40.670838
LeftHandPinky1 2.055831 60.408273
RightShoulderDummy -0.089737 0.365205 0.941567 13.379577 0.128448 0.864907
RightShoulder 6.190123 4.298824 7.137424
RightArm -2.514012 60.352748 37.190068
RightForeArm 102.099456
RightForeArmRoll 21.603286
RightHand -45.758543 -23.646506 9.851847
RightHandThumb1 11.625078 5.614970
RightHandIndex1 5.693048 34.353368
RightHandPinky1 10.296098 61.301947
LeftUpLeg -8.188691 22.919482 -39.979587
LeftLeg 40.616410
LeftFoot -0.000104 -0.674032 -1.218061 -25.665361 23.813859 0.748501
LeftToeBase 0.430355
RightUpLeg -0.672714 18.198432 -37.640086
RightLeg 52.572765
RightFoot -0.569578 0.770744 0.887888 -23.369937 4.978085 -19.420593
RightToeBase -1.082680
294
root -39.405108 -2.859635 38.105842 9.086757 -0.749671 11.098832
Spine 22.006687 -0.601111 0.467488
Spine1 7.895101 -0.029405 1.597142
Spine2 -22.505075 -1.539726 -0.918430
NeckDummy -0.093824 0.333241 0.964875 13.402102 -0.153664 -0.721624
Neck 1.754075 -15.281280 40.367412
Head -0.512427 -0.113062 0.246893 -4.390767 -5.955956 -2.386264
LeftShoulderDummy -0.147493 0.340178 0.981328 13.395506 -0.350567 -0.471568
LeftShoulder 7.285029 -7.645683 16.075031
LeftArm 13.180039 43.072657 17.493936
LeftForeArm 41.821367
LeftForeArmRoll 23.377761
LeftHand -34.002963 -25.113350 15.153316
LeftHandThumb1 13.641384 5.918117
LeftHandIndex1 0.565096 40.673042
LeftHandPinky1 2.076520 60.562652
RightShoulderDummy -0.088470 0.363712 0.942655 13.365546 0.152980 0.774517
RightShoulder 6.238511 4.384768 7.181817
RightArm -2.382200 60.508467 37.399208
RightForeArm 102.114705
RightForeArmRoll 21.502822
RightHand -45.753255 -23.611082 9.765178
RightHandThumb1 11.680126 5.639184
RightHandIndex1 5.655523 34.264675
RightHandPinky1 10.116681 61.096178
LeftUpLeg -7.925014 22.876272 -39.986558
LeftLeg 40.800371
LeftFoot -0.002577 -0.674023 -1.225048 -25.503892 23.811053 0.587267
LeftToeBase 0.432343
RightUpLeg -0.828022 18.278003 -37.597897
RightLeg 52.338546
RightFoot -0.571328 0.770163 0.883869 -23.488566 4.930266 -19.287943
RightToeBase -1.063506
295
root -39.315423 -2.849309 38.081992 9.059733 -0.700644 10.925935
Spine 21.995702 -0.655560 0.484994
Spine1 7.890226 -0.050519 1.628251
Spine2 -22.503996 -1.484984 -0.858444
NeckDummy -0.091860 0.333812 0.965581 13.386541 -0.196660 -0.643181
Neck 1.804128 -15.305926 40.373895
Head -0.517019 -0.111993 0.243892 -4.366829 -5.998921 -2.417960
LeftShoulderDummy -0.145332 0.342101 0.982811 13.379735 -0.392831 -0.393455
LeftShoulder 7.267139 -7.703456 16.079633
LeftArm 13.044951 43.183199 17.388089
LeftForeArm 41.832597
LeftForeArmRoll 23.507566
LeftHand -34.188276 -25.082235 15.186261
LeftHandThumb1 13.673323 5.826095
LeftHandIndex1 0.693397 40.613780
LeftHandPinky1 2.210541 60.414384
RightShoulderDummy -0.086358 0.362568 0.942479 13.350272 0.196097 0.693518
RightShoulder 6.281864 4.433486 7.199534
RightArm -2.258897 60.653451 37.583795
RightForeArm 102.096565
RightForeArmRoll 21.355015
RightHand -45.771404 -23.544498 9.696147
RightHandThumb1 11.646542 5.686706
RightHandIndex1 5.644102 34.204121
RightHandPinky1 10.209940 61.142247
LeftUpLeg -7.673909 22.776727 -39.942881
LeftLeg 40.955542
LeftFoot 0.004065 -0.676447 -1.234568 -25.344925 23.791658 0.397276
LeftToeBase 0.448496
RightUpLeg -1.007628 18.394017 -37.550041
RightLeg 52.098803
RightFoot -0.572994 0.768642 0.878845 -23.590098 4.868368 -19.142175
RightToeBase -1.065222
